PathFileType	4	(X/Y/Z)	C:\Users\u0145647\OneDrive - KU Leuven\KU Leuven\c3d2osim\CP4\T0\Data\Processed\ViconC3D_CP4_2\CP4_T0_15_gapFilled.trc
DataRate	CameraRate	NumFrames	NumMarkers	Units	OrigDataRate	OrigDataStartFrame	OrigNumFrames
100.000000	100.000000	7	47	mm	100.000000	245	488
Frame#	Time	C7			T10			CLAV			STRN			LSHO			RSHO			RBAK			LASI			RASI			LPSI			RPSI			LLAT			RLAT			LF1			LF2			LF3			LTHI			LKNE			LMEK			RF1			RF2			RF3			RTHI			RKNE			RMEK			LT1			LT2			LT3			LTIB			LANK			LMM			RT1			RT2			RT3			RTIB			RANK			RMM			LHEE			LSTL			LLCA			LTOE			LCM5			RHEE			RSTL			RLCA			RTOE			RCM5
		X1	Y1	Z1	X2	Y2	Z2	X3	Y3	Z3	X4	Y4	Z4	X5	Y5	Z5	X6	Y6	Z6	X7	Y7	Z7	X8	Y8	Z8	X9	Y9	Z9	X10	Y10	Z10	X11	Y11	Z11	X12	Y12	Z12	X13	Y13	Z13	X14	Y14	Z14	X15	Y15	Z15	X16	Y16	Z16	X17	Y17	Z17	X18	Y18	Z18	X19	Y19	Z19	X20	Y20	Z20	X21	Y21	Z21	X22	Y22	Z22	X23	Y23	Z23	X24	Y24	Z24	X25	Y25	Z25	X26	Y26	Z26	X27	Y27	Z27	X28	Y28	Z28	X29	Y29	Z29	X30	Y30	Z30	X31	Y31	Z31	X32	Y32	Z32	X33	Y33	Z33	X34	Y34	Z34	X35	Y35	Z35	X36	Y36	Z36	X37	Y37	Z37	X38	Y38	Z38	X39	Y39	Z39	X40	Y40	Z40	X41	Y41	Z41	X42	Y42	Z42	X43	Y43	Z43	X44	Y44	Z44	X45	Y45	Z45	X46	Y46	Z46	X47	Y47	Z47

245	2.44	1082.9	1444.2	-178.18	1058.4	1186	-220.14	1201.5	1366	-186.54	1238.9	1217.9	-196.08	1142	1426.7	-393.71	1126.4	1386	5.0962	1044.9	1351.9	-67.094	1230.9	920.31	-260.51	1170.9	933.1	-73.635	1054.5	969.36	-257.67	1032.9	983.14	-188.64	1191.8	989	-334.52	1111.1	1013.7	-51.224	1290.3	697.96	-341.35	1257.8	730.34	-344.54	1262.4	679.12	-351.65	1311	619.51	-390.96	1363.3	504.31	-319.5	NaN	NaN	NaN	1078.7	652.9	-61.194	1102.6	682.95	-53.273	1042.4	690.69	-60.08	1078.7	587.1	-30.639	1095.5	467.81	-116.35	NaN	NaN	NaN	1276.6	350.05	-355.36	1328.5	373.89	-333.23	1283.7	394.3	-350.48	1315	265.56	-370.5	1190.3	123.4	-344.09	1195.3	132.78	-256.56	1031.2	330.27	-103.35	1065.6	364.36	-119.48	1021.7	382.81	-97.709	1028.5	254.22	-69.329	938.91	100.95	-130.61	943.41	120.96	-216.43	1132.2	119.86	-305.09	1186.1	104.34	-260.63	1187.6	95.949	-338.74	1292.6	62.984	-281.86	1288.9	51.273	-325.5	883.87	111.86	-164.12	932.3	85.03	-213.82	938.62	74.422	-136.32	1051	46.563	-183.46	1029.8	32.352	-129.09
246	2.45	1101.4	1444.5	-178.68	1074.8	1186.3	-219.82	1219.4	1365.2	-186.38	1255.5	1216.9	-195.16	1161.3	1425.4	-394.14	1144	1386.5	5.2353	1062.3	1352.7	-67.103	1248	920.6	-258.75	1185	932.54	-72.261	1071	968.86	-257.89	1048.7	982.56	-189.29	1208.7	988.42	-333.54	1124.8	1013.1	-50.807	1310.6	701.27	-338.67	1278	733.5	-343.23	1283.2	682.38	-349.57	1333.1	623.87	-388.11	1386.9	509.26	-316.3	NaN	NaN	NaN	1090.1	651.96	-61.989	1114.1	682.05	-53.758	1053.8	690.14	-61.426	1089.6	586.32	-31.369	1105.5	466.72	-117.19	NaN	NaN	NaN	1312.1	348.17	-353.08	1361.1	376.18	-329.7	1315.5	393.13	-348.61	1356.8	266.88	-366.13	1241.5	116.04	-341.48	1243.8	126.27	-254.42	1038.4	330.93	-104.09	1073.8	364.05	-120.12	1030.4	383.51	-98.292	1034.2	254.9	-70.145	940.82	103.8	-131.31	946.17	123.54	-217.08	1183	108.72	-304.43	1236.6	96.85	-258.28	1240.7	88.429	-336.45	1346.1	63.136	-275.9	1344.7	51.715	-319.7	886.26	116.14	-164.91	934.43	87.833	-214.6	940.13	77.265	-136.56	1051.7	46.482	-183.72	1030.3	33.029	-129.51
247	2.46	1119.8	1444.3	-178.93	1091.6	1186	-219.63	1237.2	1364	-186.2	1272.2	1215.5	-194.16	1180.7	1423.5	-394.56	1161.6	1386.3	5.3469	1079.6	1353.1	-67.098	1265.1	920.57	-256.85	1199.7	931.57	-70.792	1087.8	968	-258.05	1064.6	981.66	-189.64	1226	987.52	-332.49	1138.8	1012	-50.438	1330.8	704.48	-337.01	1297.4	735.98	-341.66	1303.5	684.98	-347.62	1354.7	626.61	-384.92	1409.6	513.11	-313.15	NaN	NaN	NaN	1101.6	650.99	-62.642	1125.6	680.82	-54.767	1065.6	689.36	-62.709	1100.2	585.27	-31.932	1116.2	465.59	-117.72	NaN	NaN	NaN	1347.3	345.89	-350.28	1393	377.8	-326.07	1347.1	391.21	-346.53	1397.9	268.16	-361.25	1293.2	109.83	-338.47	1292.4	120.45	-250.98	1046	331.5	-104.96	1082.1	363.6	-120.71	1039.1	383.72	-99.11	1040	255.48	-70.875	942.74	106.64	-131.71	948.88	126.05	-217.78	1234.1	98.541	-302.78	1287.2	90.594	-255.24	1294.3	81.863	-333.36	1399.4	64.564	-270.04	1399.9	53.14	-314.02	888.81	120.02	-165.86	936.32	90.666	-215.1	941.4	80.074	-137.58	1052.3	46.576	-184.12	1030.7	33.675	-129.9
248	2.47	1138.3	1443.7	-179.48	1108.5	1185.4	-219.42	1255.2	1362.5	-186.09	1289.1	1213.7	-193.12	1200.2	1421.1	-395.08	1179	1385.5	5.3219	1097	1352.8	-67.112	1282.5	920.04	-255.14	1214.9	930.21	-69.519	1104.8	967.02	-258.16	1080.8	980.49	-190.07	1243.9	986.24	-331.36	1153.3	1010.2	-50.157	1350.3	706.5	-334.77	1316.5	737.85	-340.17	1323.3	686.89	-345.99	1375.2	628.83	-382.03	1431.4	515.76	-310.06	NaN	NaN	NaN	1113.3	649.62	-63.202	1137.8	679.31	-55.257	1077.4	688.83	-64.098	1111.6	583.96	-32.509	1126.3	464.17	-118.09	NaN	NaN	NaN	1381.7	343.68	-347.95	1424.1	378.93	-322.16	1378.4	388.81	-344.5	1438.3	269.56	-356.21	1344.2	104.63	-335.06	1341.5	115.26	-247.03	1053.3	331.55	-105.73	1090	362.91	-121.38	1047.6	383.97	-99.773	1045.3	255.8	-71.399	944.97	109.39	-132.48	951.7	128.34	-218.44	1285.8	88.993	-299.82	1338.1	85.041	-251.34	1347.2	76.834	-329.21	1452.6	67.559	-264.76	1454.4	56.653	-308.92	891.35	124.15	-166.63	938.32	93.289	-215.7	942.81	82.806	-138.14	1053.1	46.628	-184.45	1030.8	34.08	-129.9
249	2.48	1156.7	1442.3	-179.89	1125.5	1184.1	-219.08	1273	1360.4	-185.73	1305.7	1211.4	-192.01	1219.7	1418.4	-395.54	1196.2	1384.2	5.5071	1114.2	1352.2	-67.275	1300.2	918.96	-253.59	1230.1	928.33	-68.212	1122	965.84	-258.16	1097.4	978.96	-190.32	1262.4	984.99	-330.32	1168.1	1008.3	-49.799	1369.5	707.72	-332.56	1335.3	738.91	-338.62	1342.8	687.77	-344.24	1395.6	630.61	-379.46	1452.6	517.5	-307.48	NaN	NaN	NaN	1125.4	648.2	-63.477	1150	677.92	-55.573	1089.9	687.27	-64.769	1123	582.64	-32.748	1136.1	462.66	-118.39	NaN	NaN	NaN	1415.5	341.05	-344.72	1454	379.65	-318.22	1409	386.07	-342.39	1477.2	271.42	-350.41	1394.7	100.69	-330.18	1390.8	111.03	-242.35	1060	331.67	-106.15	1097.7	362.2	-121.66	1055.7	384.23	-100.28	1050.1	256.32	-71.88	946.72	112.07	-132.86	954.49	130.58	-219.14	1337.2	80.646	-295.03	1390.4	80.858	-246.5	1399.7	73.2	-324.41	1505.3	71.907	-260.44	1507.7	61.641	-304.9	893.8	127.72	-167.49	940.28	95.811	-216.23	944.09	85.264	-138.59	1053.7	46.632	-184.71	1031	34.462	-130.41
250	2.49	1175.1	1440.8	-180.62	1143.3	1182	-219.41	1291.1	1358	-185.49	1322.8	1208.8	-190.74	1239.4	1415.2	-396.06	1213.5	1382.7	5.3534	1131.6	1351	-67.606	1317.7	917.24	-252.02	1245.7	926.16	-67.262	1140.6	964.01	-258.21	1114.1	977.45	-190.62	1281.2	983.42	-329.19	1183.3	1006.1	-49.426	1388.4	707.97	-330.5	1353.9	738.96	-337.13	1362	688.03	-342.46	1416.1	632.39	-376.89	1472.8	518.29	-304.99	NaN	NaN	NaN	1137.7	646.57	-63.378	1162.8	676.24	-55.775	1102.7	686.16	-65.234	1135.3	580.91	-33.119	1145.6	461.04	-118.58	NaN	NaN	NaN	1448.1	338.74	-341.31	1482.6	380.29	-314.64	1438.4	383.24	-339.95	1514.5	273.53	-345.34	1443.3	97.979	-324.9	1439.4	108.08	-236.92	1066.8	331.67	-106.45	1105.5	361.01	-121.9	1063.4	384.45	-100.51	1055.8	256.25	-72.305	948.71	114.55	-133.17	957	132.73	-219.54	1388.2	74.083	-288.44	1441.5	77.976	-241.04	1449.9	70.952	-318.47	1557.3	77.795	-257.06	1559	67.91	-301.92	896.39	131.24	-168.11	942.18	98.233	-216.64	945.62	87.445	-139.17	1054.3	46.656	-185.01	1031.3	34.876	-130.69
251	2.5	1193.5	1438.7	-181.16	1160.7	1180	-219.34	1309.2	1355.2	-185.24	1340.1	1205.9	-189.63	1259	1411.7	-396.38	1230.6	1380.9	5.3475	1148.9	1349.5	-68.027	1335.7	915.28	-250.53	1260.4	923.66	-66.858	1158.3	962.18	-258.34	1131.3	975.31	-191.07	1299.8	981.37	-327.8	1199	1003.8	-49.19	1407	707.17	-328.31	1372.3	737.9	-335.16	1380.9	687.38	-341.12	1436.1	632.44	-375.26	1492.4	518.1	-303.09	NaN	NaN	NaN	1150.4	645.04	-63.302	1175.8	674.51	-55.93	1115.8	685.07	-65.16	1147.3	579.47	-32.771	1155	459.12	-118.59	NaN	NaN	NaN	1478.5	336.82	-337.9	1509.8	380.93	-311.55	1466	380.55	-337.14	1549.2	276.94	-341.81	1489.9	96.601	-319.17	1487.3	107.19	-231.05	1073.4	331.43	-106.53	1112.4	360.17	-122.01	1071	384.28	-100.67	1060.8	256.14	-72.325	950.88	116.76	-133.57	959.44	134.77	-219.84	1437.1	69.276	-281.4	1491.4	76.908	-234.9	1498.9	70.325	-313.28	1606.8	84.125	-254.82	1607.8	75.292	-299.68	898.78	134.5	-168.48	944.09	100.62	-217.15	947.1	89.84	-139.42	1054.9	46.7	-185.22	1031.6	35.264	-130.92
